<svg width="260" height="80" x="0px" y="0px" viewBox="0 0 244 100" xmlns="http://www.w3.org/2000/svg" version="1.1" style="transform: translate(0,0)"><rect x="0" y="0" width="244" height="100" style="fill:#ffffff;"/><g transform="translate(10, 10)" style="fill:#000000;"><rect x="0" y="0" width="4" height="80"/><rect x="6" y="0" width="2" height="80"/><rect x="12" y="0" width="2" height="80"/><rect x="22" y="0" width="4" height="80"/><rect x="32" y="0" width="2" height="80"/><rect x="36" y="0" width="6" height="80"/><rect x="44" y="0" width="2" height="80"/><rect x="52" y="0" width="4" height="80"/><rect x="58" y="0" width="2" height="80"/><rect x="66" y="0" width="2" height="80"/><rect x="74" y="0" width="2" height="80"/><rect x="78" y="0" width="4" height="80"/><rect x="88" y="0" width="2" height="80"/><rect x="96" y="0" width="4" height="80"/><rect x="102" y="0" width="6" height="80"/><rect x="110" y="0" width="2" height="80"/><rect x="114" y="0" width="4" height="80"/><rect x="122" y="0" width="2" height="80"/><rect x="132" y="0" width="2" height="80"/><rect x="142" y="0" width="2" height="80"/><rect x="148" y="0" width="4" height="80"/><rect x="154" y="0" width="4" height="80"/><rect x="160" y="0" width="8" height="80"/><rect x="170" y="0" width="4" height="80"/><rect x="176" y="0" width="2" height="80"/><rect x="184" y="0" width="2" height="80"/><rect x="192" y="0" width="4" height="80"/><rect x="198" y="0" width="4" height="80"/><rect x="208" y="0" width="6" height="80"/><rect x="216" y="0" width="2" height="80"/><rect x="220" y="0" width="4" height="80"/></g></svg>